<svg width="1215" height="289" viewBox="0 0 1215 289" fill="none" xmlns="http://www.w3.org/2000/svg">
<path d="M1169.31 188.799C1165.71 188.799 1161.91 188.299 1157.91 187.299C1153.91 186.299 1150.31 184.699 1147.11 182.499C1144.11 180.099 1142.11 176.899 1141.11 172.899C1140.91 172.299 1140.81 171.399 1140.81 170.199C1140.81 167.399 1141.41 164.299 1142.61 160.899C1144.01 157.499 1145.71 155.099 1147.71 153.699C1148.51 153.299 1149.11 153.299 1149.51 153.699C1150.11 154.099 1150.21 154.499 1149.81 154.899C1149.61 155.499 1149.31 156.299 1148.91 157.299C1148.51 158.099 1148.21 158.999 1148.01 159.999C1147.41 165.199 1148.51 169.799 1151.31 173.799C1152.51 175.399 1153.91 176.899 1155.51 178.299C1157.31 179.699 1159.01 180.899 1160.61 181.899C1162.01 182.699 1163.71 183.299 1165.71 183.699C1167.71 183.899 1169.71 183.999 1171.71 183.999C1174.91 183.999 1178.01 183.599 1181.01 182.799C1184.01 181.999 1186.21 180.699 1187.61 178.899C1190.21 175.699 1191.51 172.099 1191.51 168.099C1191.51 165.099 1190.71 161.899 1189.11 158.499C1187.51 155.099 1185.01 151.499 1181.61 147.699C1179.41 145.299 1177.31 142.699 1175.31 139.899C1173.31 137.099 1172.01 134.099 1171.41 130.899C1171.21 130.299 1171.01 129.699 1170.81 129.099C1170.81 128.499 1170.81 127.899 1170.81 127.299C1168.21 131.099 1165.51 134.699 1162.71 138.099C1160.11 141.299 1157.81 144.099 1155.81 146.499C1155.01 147.699 1154.31 148.299 1153.71 148.299C1153.31 148.299 1153.11 147.899 1153.11 147.099C1153.11 145.299 1153.91 143.399 1155.51 141.399C1157.11 139.599 1158.91 137.399 1160.91 134.799C1162.91 131.999 1164.51 129.799 1165.71 128.199C1169.11 123.199 1171.61 119.299 1173.21 116.499C1175.01 113.499 1176.91 110.799 1178.91 108.399C1181.11 105.799 1183.81 103.699 1187.01 102.099C1190.41 100.499 1193.91 99.6992 1197.51 99.6992C1201.71 99.6992 1205.51 100.399 1208.91 101.799C1212.51 102.999 1214.41 106.199 1214.61 111.399C1214.61 113.799 1214.11 116.299 1213.11 118.899C1212.31 121.299 1211.41 123.599 1210.41 125.799C1209.81 126.999 1208.91 127.899 1207.71 128.499C1206.71 128.899 1206.21 128.699 1206.21 127.899C1206.21 127.099 1206.31 126.199 1206.51 125.199C1206.71 124.199 1206.81 123.299 1206.81 122.499C1206.81 119.099 1206.21 116.099 1205.01 113.499C1204.01 110.699 1202.51 108.699 1200.51 107.499C1198.51 106.099 1196.41 105.399 1194.21 105.399C1191.01 105.399 1187.91 106.699 1184.91 109.299C1181.91 111.699 1180.41 114.899 1180.41 118.899C1180.41 119.299 1180.41 119.799 1180.41 120.399C1180.41 120.999 1180.51 121.499 1180.71 121.899C1181.51 125.099 1183.91 128.699 1187.91 132.699C1191.91 136.699 1195.01 140.199 1197.21 143.199C1201.01 148.399 1202.91 153.699 1202.91 159.099C1202.91 164.499 1201.31 169.499 1198.11 174.099C1195.11 178.499 1191.01 181.999 1185.81 184.599C1180.81 187.399 1175.31 188.799 1169.31 188.799Z" fill="#FF84F3"/>
<path d="M1001.51 191.8C995.114 191.8 990.614 190.7 988.014 188.5C985.614 186.3 984.414 183.5 984.414 180.1C984.414 177.9 984.714 175.7 985.314 173.5C986.114 171.1 986.914 168.7 987.714 166.3C990.314 159.9 993.014 153.6 995.814 147.4C998.814 141.2 1001.91 135.1 1005.11 129.1C1008.31 122.9 1012.11 115.5 1016.51 106.9C1020.91 98.3 1025.21 89.3 1029.41 79.9C1033.81 70.3 1037.41 61 1040.21 52C1043.21 43 1044.71 35.1 1044.71 28.3H1018.31C1015.31 28.3 1011.11 28.5 1005.71 28.9C1000.51 29.3 995.114 30.2 989.514 31.6C984.114 33 979.614 35.3 976.014 38.5C972.414 41.7 970.814 46 971.214 51.4C971.414 53 972.014 55.2 973.014 58C974.014 60.6 974.715 62.2 975.115 62.8L971.814 65.2C970.614 63 969.114 60.5 967.314 57.7C965.514 54.7 963.914 51.8 962.514 49C961.114 46.2 960.315 44.1 960.115 42.7C960.115 42.3 960.014 41.8 959.814 41.2C959.814 40.6 959.814 40 959.814 39.4C959.814 37.2 960.214 35 961.014 32.8C961.814 30.4 963.214 28.3 965.214 26.5C968.214 23.9 972.314 22.2 977.514 21.4C982.914 20.6 988.414 20.2 994.014 20.2C999.414 20.2 1004.61 20.4 1009.61 20.8C1014.61 21.2 1018.71 21.4 1021.91 21.4C1021.91 21.4 1024.21 21.4 1028.81 21.4C1033.41 21.4 1039.21 21.4 1046.21 21.4C1053.41 21.2 1061.01 21.1 1069.01 21.1C1077.01 21.1 1084.31 21.1 1090.91 21.1L1087.01 25.6C1083.41 25.6 1079.61 26.2 1075.61 27.4C1071.81 28.4 1068.51 30.6 1065.71 34C1061.51 39.4 1056.81 46.5 1051.61 55.3C1046.41 64.1 1041.11 73.8 1035.71 84.4C1030.31 95 1025.31 105.6 1020.71 116.2C1016.11 126.8 1012.21 136.8 1009.01 146.2C1006.01 155.4 1004.11 163.2 1003.31 169.6C1003.11 173.2 1003.91 175.8 1005.71 177.4C1007.71 179 1010.31 179.8 1013.51 179.8C1017.71 179.8 1021.81 178.7 1025.81 176.5C1033.81 172.5 1041.81 166.9 1049.81 159.7C1057.81 152.3 1065.41 144.4 1072.61 136C1079.81 127.6 1085.91 119.8 1090.91 112.6C1098.91 101.2 1106.61 88.8 1114.01 75.4C1121.61 62 1128.11 49.4 1133.51 37.6C1134.91 35.2 1136.11 32.5 1137.11 29.5C1138.31 26.3 1139.91 24.7 1141.91 24.7C1142.71 24.7 1143.71 24.8 1144.91 25C1146.11 25.2 1147.41 25.3 1148.81 25.3C1155.01 25.3 1160.71 22.8 1165.91 17.8C1166.11 17.6 1166.61 17.5 1167.41 17.5C1168.21 17.5 1168.81 17.7 1169.21 18.1C1169.81 18.3 1169.91 18.6 1169.51 19C1165.11 22.6 1161.41 26.2 1158.41 29.8C1155.41 33.4 1152.11 38 1148.51 43.6C1144.31 50 1139.51 57.4 1134.11 65.8C1128.91 74.2 1123.61 83 1118.21 92.2C1112.81 101.4 1107.91 110.5 1103.51 119.5C1099.11 128.5 1095.71 136.7 1093.31 144.1C1092.11 147.9 1091.11 151.7 1090.31 155.5C1089.51 159.3 1089.11 162.8 1089.11 166C1089.11 170.8 1090.11 174.7 1092.11 177.7C1094.31 180.7 1097.91 182.2 1102.91 182.2C1103.91 182.2 1104.81 182.2 1105.61 182.2C1106.61 182 1107.61 181.8 1108.61 181.6C1112.41 181 1116.71 178.9 1121.51 175.3C1126.51 171.5 1131.21 167.4 1135.61 163C1140.01 159 1143.71 155.2 1146.71 151.6C1149.91 147.8 1153.31 143.7 1156.91 139.3C1157.31 140.1 1157.51 140.9 1157.51 141.7C1157.31 143.1 1156.81 144.5 1156.01 145.9C1155.41 147.3 1154.61 148.5 1153.61 149.5C1152.21 151.3 1150.11 153.9 1147.31 157.3C1144.51 160.5 1141.41 163.9 1138.01 167.5C1135.61 169.9 1132.01 173.1 1127.21 177.1C1122.41 180.9 1117.21 184.3 1111.61 187.3C1106.21 190.3 1101.11 191.8 1096.31 191.8C1088.91 191.8 1083.81 189.8 1081.01 185.8C1078.21 182 1076.81 177.3 1076.81 171.7C1076.81 164.7 1078.21 157 1081.01 148.6C1084.01 140.2 1086.81 132.6 1089.41 125.8C1085.21 130.8 1080.81 135.6 1076.21 140.2C1071.61 144.6 1067.01 149.1 1062.41 153.7C1057.61 158.3 1052.71 163 1047.71 167.8C1042.91 172.4 1037.91 176.6 1032.71 180.4C1027.91 183.6 1022.91 186.3 1017.71 188.5C1012.51 190.7 1007.11 191.8 1001.51 191.8Z" fill="#FF84F3"/>
<path d="M784.137 289C776.537 289 769.237 287.2 762.237 283.6C755.037 280.2 749.737 274.9 746.337 267.7C744.937 265.1 744.037 262.3 743.637 259.3C743.237 256.5 743.037 253.7 743.037 250.9V247.9C743.037 246.3 743.237 244.8 743.637 243.4C744.037 242 745.137 241.3 746.937 241.3C747.337 241.3 747.537 241.5 747.537 241.9C747.537 243.1 747.437 244.3 747.237 245.5C747.037 246.7 746.937 248 746.937 249.4C746.937 258.6 749.937 265.6 755.937 270.4C761.737 275.2 769.037 277.6 777.837 277.6C781.437 277.6 785.137 277.2 788.937 276.4C792.737 275.6 796.237 274.5 799.437 273.1C812.237 267.7 823.337 259.9 832.737 249.7C842.337 239.5 850.637 228 857.637 215.2C864.837 202.4 871.137 189.3 876.537 175.9C882.137 162.3 887.337 149.5 892.137 137.5C887.937 144.3 883.337 150.4 878.337 155.8C873.337 161 867.737 166.2 861.537 171.4C857.737 174.6 853.537 177.6 848.937 180.4C844.537 183.2 839.737 184.6 834.537 184.6C832.537 184.6 831.137 184 830.337 182.8C829.537 181.4 829.137 179.8 829.137 178V175.9C830.137 168.1 832.637 160 836.637 151.6C840.837 143.2 845.837 135.3 851.637 127.9C857.437 120.5 863.337 114.5 869.337 109.9C876.137 104.7 883.637 102.1 891.837 102.1H926.337C927.337 102.1 927.837 102.5 927.837 103.3C927.837 104.9 926.937 105.7 925.137 105.7C922.937 105.7 920.837 106.6 918.837 108.4C916.837 110.2 915.337 111.9 914.337 113.5C912.337 116.7 909.737 121.6 906.537 128.2C903.337 134.8 899.837 142.4 896.037 151C892.237 159.4 888.437 168 884.637 176.8C880.837 185.4 877.337 193.5 874.137 201.1C869.337 212.5 863.837 223.6 857.637 234.4C851.637 245.4 844.437 255.2 836.037 263.8C827.837 272.6 818.037 279.5 806.637 284.5C799.837 287.5 792.337 289 784.137 289ZM846.837 174.4C849.237 174.4 852.537 172.7 856.737 169.3C860.937 165.7 865.537 161.3 870.537 156.1C875.537 150.7 880.237 145.1 884.637 139.3C889.037 133.3 892.637 127.9 895.437 123.1C898.437 118.1 899.937 114.3 899.937 111.7C899.937 109.5 899.237 108 897.837 107.2C896.637 106.4 895.037 106 893.037 106C889.837 106 886.437 107.2 882.837 109.6C879.237 111.8 876.337 114 874.137 116.2C871.737 118.4 868.837 121.9 865.437 126.7C862.237 131.3 858.937 136.4 855.537 142C852.337 147.6 849.637 153 847.437 158.2C845.237 163.4 844.137 167.6 844.137 170.8C844.137 173.2 845.037 174.4 846.837 174.4Z" fill="#FF84F3"/>
<path d="M740.613 188.499C739.813 188.499 739.813 187.599 740.613 185.799C741.613 183.999 742.513 181.999 743.313 179.799C744.313 177.599 745.313 175.199 746.313 172.599C748.313 167.799 750.513 162.399 752.913 156.399C755.313 150.399 757.613 144.599 759.813 138.999C762.013 133.199 763.913 128.299 765.513 124.299C767.313 120.099 768.513 117.399 769.113 116.199C766.313 119.199 762.913 122.999 758.913 127.599C755.113 131.999 751.513 136.299 748.113 140.499C744.713 144.699 742.113 147.999 740.313 150.399C739.713 151.199 739.213 151.599 738.813 151.599C738.413 151.599 738.213 151.099 738.213 150.099C738.213 148.499 738.713 146.999 739.713 145.599C743.513 140.799 747.713 135.399 752.313 129.399C757.113 123.399 761.413 117.899 765.213 112.899C769.013 107.699 771.413 104.299 772.413 102.699C774.613 102.299 777.813 101.699 782.013 100.899C786.413 100.099 789.413 98.9992 791.013 97.5992C791.613 96.9992 792.213 96.6992 792.813 96.6992C793.213 96.6992 793.413 97.0992 793.413 97.8992C793.613 98.4992 793.413 99.1992 792.813 99.9992C791.613 101.399 789.513 104.699 786.513 109.899C783.713 114.899 780.613 120.499 777.213 126.699C774.013 132.899 771.013 138.499 768.213 143.499C770.613 140.299 773.213 137.199 776.013 134.199C778.813 131.199 781.513 128.299 784.113 125.499C786.513 123.099 789.813 120.099 794.013 116.499C798.213 112.899 802.613 109.599 807.213 106.599C811.813 103.599 815.813 101.899 819.213 101.499C820.013 101.299 820.713 101.199 821.313 101.199C822.113 101.199 822.713 101.199 823.113 101.199C827.513 101.199 829.713 102.799 829.713 105.999C829.713 108.399 828.413 111.599 825.813 115.599C824.413 117.799 822.213 121.499 819.213 126.699C816.413 131.699 813.513 137.199 810.513 143.199C807.713 148.999 805.213 154.499 803.013 159.699C801.013 164.699 800.013 168.399 800.013 170.799C800.013 173.599 801.413 174.999 804.213 174.999C807.613 174.999 811.313 173.299 815.313 169.899C819.513 166.499 824.013 162.199 828.813 156.999C833.613 151.599 838.413 145.899 843.213 139.899C843.613 140.299 843.813 140.999 843.813 141.999C843.813 143.399 843.313 144.799 842.313 146.199C841.513 147.399 840.713 148.499 839.913 149.499C837.913 152.099 835.213 155.399 831.813 159.399C828.613 163.199 825.313 166.999 821.913 170.799C818.513 174.399 815.413 177.299 812.613 179.499C810.613 180.899 808.013 182.399 804.813 183.999C801.613 185.599 798.413 186.399 795.213 186.399C791.613 186.399 789.113 185.499 787.713 183.699C786.313 181.699 785.613 179.299 785.613 176.499C785.613 173.299 786.213 169.899 787.413 166.299C788.613 162.699 789.913 159.299 791.313 156.099C792.913 152.699 794.113 150.199 794.913 148.599C798.513 141.599 801.813 134.999 804.813 128.799C807.813 122.599 809.913 118.199 811.113 115.599C811.713 114.399 812.013 113.399 812.013 112.599C812.013 111.199 810.913 111.099 808.713 112.299C806.513 113.499 803.813 115.299 800.613 117.699C797.613 120.099 794.813 122.499 792.213 124.899C789.613 127.099 787.913 128.599 787.113 129.399C779.713 137.199 773.213 145.899 767.613 155.499C762.213 164.899 757.613 174.599 753.813 184.599C751.213 184.799 748.613 185.499 746.013 186.699C743.413 187.899 741.613 188.499 740.613 188.499Z" fill="#FF84F3"/>
<path d="M743.498 69.3992C740.698 69.3992 738.698 68.4992 737.498 66.6992C736.698 65.6992 736.298 64.3992 736.298 62.7992C736.298 59.5992 737.798 56.9992 740.798 54.9992C742.998 53.7992 744.998 53.1992 746.798 53.1992C749.798 53.1992 751.898 54.0992 753.098 55.8992C753.898 56.8992 754.298 58.1992 754.298 59.7992C754.298 62.9992 752.698 65.5992 749.498 67.5992C747.698 68.7992 745.698 69.3992 743.498 69.3992ZM691.298 184.899C689.298 184.899 687.598 184.499 686.198 183.699C684.998 182.899 684.398 181.399 684.398 179.199C684.398 176.399 685.098 173.099 686.498 169.299C688.098 165.499 689.798 161.699 691.598 157.899C693.598 154.099 695.098 150.999 696.098 148.599C697.498 145.799 699.198 142.199 701.198 137.799C703.398 133.199 705.398 128.899 707.198 124.899C709.198 120.699 710.598 117.799 711.398 116.199C708.598 119.199 705.198 122.999 701.198 127.599C697.398 131.999 693.798 136.299 690.398 140.499C686.998 144.699 684.398 147.999 682.598 150.399C681.998 151.199 681.498 151.599 681.098 151.599C680.698 151.599 680.498 151.099 680.498 150.099C680.498 148.499 680.998 146.999 681.998 145.599C685.798 140.799 689.998 135.399 694.598 129.399C699.398 123.399 703.698 117.899 707.498 112.899C711.298 107.699 713.698 104.299 714.698 102.699C716.898 102.299 720.098 101.699 724.298 100.899C728.698 100.099 731.698 98.9992 733.298 97.5992C733.898 96.9992 734.498 96.6992 735.098 96.6992C735.498 96.6992 735.698 97.0992 735.698 97.8992C735.898 98.4992 735.698 99.1992 735.098 99.9992C733.898 101.399 731.798 104.799 728.798 110.199C725.798 115.599 722.598 121.599 719.198 128.199C715.998 134.599 712.998 140.399 710.198 145.599C707.398 150.999 704.998 156.199 702.998 161.199C700.998 166.199 699.998 169.799 699.998 171.999C699.998 174.799 701.398 176.199 704.198 176.199C706.798 176.199 710.098 174.599 714.098 171.399C718.298 168.199 722.498 164.399 726.698 159.999C730.898 155.399 734.598 151.199 737.798 147.399C738.798 146.199 739.998 144.799 741.398 143.199C742.998 141.399 743.998 140.299 744.398 139.899C744.798 140.299 744.998 140.999 744.998 141.999C744.798 143.399 744.298 144.799 743.498 146.199C742.698 147.399 741.898 148.499 741.098 149.499C736.898 154.699 732.298 160.099 727.298 165.699C722.298 171.099 716.798 175.699 710.798 179.499C704.798 183.099 698.298 184.899 691.298 184.899Z" fill="#FF84F3"/>
<path d="M633.625 184.9C631.625 184.9 629.925 184.5 628.525 183.7C627.125 182.9 626.425 181.4 626.425 179.2C626.425 176.4 627.125 173.1 628.525 169.3C630.125 165.5 631.825 161.7 633.625 157.9C635.425 154.1 636.925 151 638.125 148.6C639.125 146.8 640.425 144 642.025 140.2C643.825 136.2 645.625 132.1 647.425 127.9C649.425 123.5 651.025 119.8 652.225 116.8C653.625 113.8 654.325 112.3 654.325 112.3C652.525 114.3 650.125 117.1 647.125 120.7C644.325 124.3 641.225 128.1 637.825 132.1C634.625 135.9 631.625 139.5 628.825 142.9C626.225 146.3 624.325 148.8 623.125 150.4C622.525 151.2 622.025 151.6 621.625 151.6C621.225 151.6 621.025 151.1 621.025 150.1C621.025 148.5 621.525 147 622.525 145.6C624.925 142.6 627.825 139 631.225 134.8C634.625 130.4 638.025 126 641.425 121.6C645.025 117.2 648.125 113.3 650.725 109.9C649.125 109.9 647.025 110 644.425 110.2C642.025 110.4 639.825 110.7 637.825 111.1C635.825 111.3 634.725 111.4 634.525 111.4C633.525 111.4 633.625 110.6 634.825 109C636.025 107.4 637.625 105.8 639.625 104.2C641.625 102.6 643.125 101.8 644.125 101.8C644.325 101.8 645.925 101.9 648.925 102.1C651.925 102.1 654.125 102.1 655.525 102.1C659.525 96.7 663.425 90.5 667.225 83.5C671.225 76.5 675.125 68.8 678.925 60.4C680.525 60.2 683.225 59.1 687.025 57.1C691.025 54.9 694.125 52.7 696.325 50.5C697.325 49.5 698.125 49 698.725 49C699.925 49 699.925 49.8 698.725 51.4C697.325 53 694.925 56.4 691.525 61.6C688.125 66.6 684.325 72.7 680.125 79.9C675.925 86.9 671.925 94.3 668.125 102.1H692.425C694.625 102.1 695.725 102.4 695.725 103C695.725 103.8 694.225 104.6 691.225 105.4C687.825 106.4 684.225 107 680.425 107.2C676.825 107.4 673.425 107.8 670.225 108.4C667.225 109 665.025 110.3 663.625 112.3C662.425 113.7 660.725 116.7 658.525 121.3C656.325 125.9 653.925 131.2 651.325 137.2C648.925 143 646.825 148.9 645.025 154.9C643.225 160.7 642.125 165.6 641.725 169.6V170.8C641.725 172.4 642.225 173.7 643.225 174.7C644.225 175.7 645.225 176.2 646.225 176.2C648.825 176.2 652.125 174.6 656.125 171.4C660.325 168.2 664.625 164.4 669.025 160C673.425 155.4 677.225 151.2 680.425 147.4C681.825 145.8 683.025 144.3 684.025 142.9C685.225 141.5 685.925 140.6 686.125 140.2C686.525 141 686.725 141.6 686.725 142C686.725 143.2 686.325 144.5 685.525 145.9C684.925 147.3 684.225 148.5 683.425 149.5C679.625 154.5 675.025 159.8 669.625 165.4C664.225 170.8 658.425 175.4 652.225 179.2C646.225 183 640.025 184.9 633.625 184.9Z" fill="#FF84F3"/>
<path d="M574.243 184.9C572.243 184.9 570.543 184.5 569.143 183.7C567.743 182.9 567.043 181.4 567.043 179.2C567.043 176.4 567.743 173.2 569.143 169.6C570.543 166 572.143 162.5 573.943 159.1C575.743 155.5 577.343 152.6 578.743 150.4C571.743 157.8 564.443 164.8 556.843 171.4C553.043 174.6 548.843 177.6 544.243 180.4C539.643 183.2 534.743 184.6 529.543 184.6C527.543 184.6 526.143 184 525.343 182.8C524.543 181.4 524.143 179.8 524.143 178C524.143 177 524.243 176.3 524.443 175.9C525.443 168.1 527.943 160 531.943 151.6C535.943 143.2 540.843 135.3 546.643 127.9C552.443 120.5 558.343 114.5 564.343 109.9C571.143 104.7 578.643 102.1 586.843 102.1H621.343C622.343 102.1 622.843 102.5 622.843 103.3C622.843 104.9 621.943 105.7 620.143 105.7C618.143 105.7 616.143 107 614.143 109.6C612.143 112 610.643 114 609.643 115.6C608.243 117.8 606.043 121.5 603.043 126.7C600.043 131.9 596.943 137.6 593.743 143.8C590.743 149.8 588.143 155.4 585.943 160.6C583.743 165.8 582.643 169.6 582.643 172C582.643 174.8 584.043 176.2 586.843 176.2C589.843 176.2 593.243 174.8 597.043 172C600.843 169.2 604.643 165.8 608.443 161.8C612.443 157.6 616.043 153.5 619.243 149.5C622.643 145.3 625.343 142 627.343 139.6C628.543 140.8 628.443 142.5 627.043 144.7C625.843 146.7 624.743 148.3 623.743 149.5C619.743 154.7 615.143 160.1 609.943 165.7C604.743 171.1 599.043 175.7 592.843 179.5C586.843 183.1 580.643 184.9 574.243 184.9ZM541.843 174.4C544.243 174.4 547.543 172.7 551.743 169.3C556.143 165.7 560.843 161.3 565.843 156.1C570.843 150.7 575.543 145.1 579.943 139.3C584.343 133.3 587.943 127.9 590.743 123.1C593.743 118.1 595.243 114.3 595.243 111.7C595.243 109.5 594.543 108 593.143 107.2C591.943 106.4 590.343 106 588.343 106C585.143 106 581.643 107.2 577.843 109.6C574.243 111.8 571.343 114 569.143 116.2C566.743 118.4 563.843 121.9 560.443 126.7C557.243 131.3 554.043 136.4 550.843 142C547.643 147.6 544.943 153 542.743 158.2C540.543 163.4 539.443 167.6 539.443 170.8C539.443 173.2 540.243 174.4 541.843 174.4Z" fill="#FF84F3"/>
<path d="M453.504 188.199C452.704 188.199 452.704 187.399 453.504 185.799C454.504 183.999 455.404 181.999 456.204 179.799C457.204 177.599 458.204 175.199 459.204 172.599C461.204 167.799 463.403 162.399 465.803 156.399C468.203 150.399 470.504 144.599 472.704 138.999C474.904 133.199 476.804 128.299 478.404 124.299C480.204 120.099 481.404 117.399 482.004 116.199C479.204 119.199 475.803 122.999 471.803 127.599C468.003 131.999 464.404 136.299 461.004 140.499C457.604 144.699 455.004 147.999 453.204 150.399C452.604 151.199 452.104 151.599 451.704 151.599C451.304 151.599 451.104 151.099 451.104 150.099C451.104 148.499 451.604 146.999 452.604 145.599C456.404 140.799 460.604 135.399 465.204 129.399C470.004 123.399 474.304 117.899 478.104 112.899C481.904 107.699 484.304 104.299 485.304 102.699C487.504 102.299 490.704 101.699 494.904 100.899C499.304 100.099 502.304 98.9992 503.904 97.5992C504.504 96.9992 505.104 96.6992 505.704 96.6992C506.104 96.6992 506.303 97.0992 506.303 97.8992C506.503 98.4992 506.304 99.1992 505.704 99.9992C504.504 101.199 502.703 103.799 500.303 107.799C498.103 111.799 495.603 116.399 492.803 121.599C490.003 126.799 487.304 131.799 484.704 136.599C486.704 133.599 489.304 130.099 492.504 126.099C495.904 121.899 499.603 117.899 503.603 114.099C507.603 110.099 511.603 106.799 515.603 104.199C519.803 101.599 523.703 100.299 527.303 100.299C529.903 100.299 532.104 100.899 533.904 102.099C535.704 103.099 537.104 104.999 538.104 107.799C538.704 109.199 539.004 110.799 539.004 112.599C539.004 115.999 538.103 119.299 536.303 122.499C534.704 125.499 533.504 127.799 532.704 129.399C532.504 129.999 531.804 130.599 530.604 131.199C529.404 131.599 528.904 131.399 529.104 130.599C529.304 129.599 529.404 128.599 529.404 127.599C529.604 126.599 529.704 125.499 529.704 124.299C529.704 120.899 529.003 117.799 527.603 114.999C526.403 112.199 524.104 110.799 520.704 110.799C517.504 110.799 513.604 112.799 509.004 116.799C504.404 120.799 499.804 125.399 495.204 130.599C489.404 137.399 484.804 143.899 481.404 150.099C478.004 156.099 475.204 161.999 473.004 167.799C471.804 170.999 470.604 174.199 469.404 177.399C468.204 180.399 467.304 182.799 466.704 184.599C464.104 184.799 461.504 185.399 458.904 186.399C456.304 187.599 454.504 188.199 453.504 188.199Z" fill="#FF84F3"/>
<path d="M383.737 186.7C381.137 186.7 378.037 186.2 374.437 185.2C370.837 184.4 369.037 182.2 369.037 178.6C369.037 177.2 369.337 175.6 369.937 173.8C370.537 172 371.137 170.4 371.737 169C373.737 163.8 375.837 158.5 378.037 153.1C380.237 147.7 382.537 142.2 384.937 136.6C382.337 139.6 379.837 142.4 377.437 145C375.237 147.4 373.637 149.2 372.637 150.4C372.037 151.2 371.537 151.6 371.137 151.6C370.737 151.6 370.537 151.1 370.537 150.1C370.537 148.5 371.037 147 372.037 145.6C374.837 142 378.037 138.2 381.637 134.2C385.237 130.2 388.737 126 392.137 121.6C400.537 104 409.937 87.0004 420.337 70.6004C430.737 54.0004 442.437 39.3004 455.437 26.5004C459.437 22.7004 463.937 18.8004 468.937 14.8004C473.937 10.8004 479.237 7.40039 484.837 4.60039C490.637 1.80039 496.337 0.400391 501.937 0.400391C504.937 0.400391 507.637 1.20039 510.037 2.80039C512.637 4.4004 514.037 6.90039 514.237 10.3004V19.0004C514.237 19.8004 513.637 20.2004 512.437 20.2004C511.837 20.2004 511.537 20.0004 511.537 19.6004C511.537 16.4004 510.137 14.3004 507.337 13.3004C504.537 12.1004 501.737 11.5004 498.937 11.5004C487.937 11.5004 478.037 14.4004 469.237 20.2004C460.437 25.8004 452.637 33.2004 445.837 42.4004C439.037 51.4004 432.937 61.4004 427.537 72.4004C422.137 83.2004 417.237 93.9004 412.837 104.5C408.637 114.9 404.637 124.2 400.837 132.4C400.837 132.4 400.837 132.6 400.837 133C400.837 133.4 400.937 133.6 401.137 133.6C401.337 133.6 402.937 132.1 405.937 129.1C409.137 125.9 413.037 122.2 417.637 118C422.437 113.8 427.437 110.2 432.637 107.2C437.837 104 442.637 102.4 447.037 102.4C449.237 102.4 450.637 103.2 451.237 104.8C451.837 106.2 452.137 107.8 452.137 109.6V112.3C451.137 119.7 448.537 127.7 444.337 136.3C440.337 144.9 435.137 153.1 428.737 160.9C422.537 168.5 415.537 174.7 407.737 179.5C400.137 184.3 392.137 186.7 383.737 186.7ZM388.537 181.6C391.737 181.6 395.137 180.4 398.737 178C402.537 175.4 405.437 173.1 407.437 171.1C409.837 168.9 412.737 165.5 416.137 160.9C419.537 156.1 422.837 150.9 426.037 145.3C429.237 139.7 431.937 134.3 434.137 129.1C436.337 123.9 437.437 119.7 437.437 116.5C437.437 115.5 437.237 114.6 436.837 113.8C436.437 113 435.737 112.6 434.737 112.6C432.937 112.6 430.537 113.7 427.537 115.9C424.737 118.1 421.637 120.8 418.237 124C415.037 127 412.037 130 409.237 133C406.637 135.8 404.737 137.9 403.537 139.3C401.337 141.7 398.537 145.2 395.137 149.8C391.737 154.4 388.637 159.1 385.837 163.9C383.237 168.5 381.937 172.4 381.937 175.6C381.937 179.6 384.137 181.6 388.537 181.6Z" fill="#FF84F3"/>
<path d="M313.531 186.4C305.331 186.4 299.631 184.8 296.431 181.6C293.231 178.4 291.631 174.5 291.631 169.9C291.631 164.1 293.131 157.9 296.131 151.3C299.331 144.7 302.331 139.1 305.131 134.5C308.331 129.7 312.631 124.7 318.031 119.5C323.431 114.3 329.331 109.9 335.731 106.3C342.131 102.7 348.331 100.9 354.331 100.9C359.531 100.9 363.131 102.2 365.131 104.8C367.131 107.2 368.131 110.1 368.131 113.5C368.131 119.7 366.231 124.8 362.431 128.8C358.831 132.8 354.331 136.1 348.931 138.7C343.531 141.1 338.331 143.1 333.331 144.7C330.331 145.5 326.831 146.3 322.831 147.1C318.831 147.9 315.031 148.3 311.431 148.3C310.031 151.9 308.931 155.4 308.131 158.8C307.331 162.2 306.931 165.3 306.931 168.1C306.931 171.5 307.731 174.3 309.331 176.5C311.131 178.7 314.031 179.8 318.031 179.8C319.631 179.8 321.531 179.6 323.731 179.2C325.931 178.8 328.331 178.2 330.931 177.4C336.931 175.4 342.831 172.2 348.631 167.8C354.431 163.4 359.731 158.7 364.531 153.7C369.531 148.5 373.331 144.2 375.931 140.8C376.531 141.4 376.831 142.1 376.831 142.9C376.831 143.9 376.131 145.5 374.731 147.7C370.731 153.3 365.531 159.1 359.131 165.1C352.731 171.1 345.631 176.2 337.831 180.4C330.031 184.4 321.931 186.4 313.531 186.4ZM313.831 142.3C316.431 142.5 319.331 142.5 322.531 142.3C325.931 141.9 329.231 141.2 332.431 140.2C340.631 137.8 346.531 134 350.131 128.8C353.931 123.4 355.831 118.6 355.831 114.4C355.831 112 355.331 110 354.331 108.4C353.331 106.8 351.731 106 349.531 106C343.731 106 338.531 108.2 333.931 112.6C329.331 116.8 325.331 121.7 321.931 127.3C318.531 132.9 315.831 137.9 313.831 142.3Z" fill="#FF84F3"/>
<path d="M252.07 184.6C246.07 184.6 241.97 183.2 239.77 180.4C237.57 177.4 236.47 173.8 236.47 169.6C236.47 164 237.67 158 240.07 151.6C242.67 145.2 244.77 140.2 246.37 136.6C243.77 139.4 241.27 142.1 238.87 144.7C236.47 147.3 234.77 149.2 233.77 150.4C233.17 151.2 232.67 151.6 232.27 151.6C231.87 151.6 231.67 151.1 231.67 150.1C231.67 148.5 232.17 147 233.17 145.6C235.97 142 239.17 138.2 242.77 134.2C246.37 130.2 249.87 126 253.27 121.6C257.27 114.2 261.67 105.6 266.47 95.7996C271.47 85.7996 276.57 75.5996 281.77 65.1996C287.17 54.5996 292.37 44.8996 297.37 36.0996C302.57 27.0996 307.17 19.8996 311.17 14.4996C314.57 13.0996 317.77 11.2996 320.77 9.09962C323.97 6.89961 327.07 4.8996 330.07 3.0996C333.27 1.0996 336.57 0.0996094 339.97 0.0996094C342.17 0.0996094 343.77 0.699608 344.77 1.8996C345.97 3.09961 346.77 4.49961 347.17 6.0996C347.37 6.69961 347.47 7.79961 347.47 9.39961C347.47 13.9996 345.87 19.5996 342.67 26.1996C339.67 32.7996 336.07 39.2996 331.87 45.6996C327.87 51.8996 324.37 56.9996 321.37 60.9996C313.37 72.1996 305.17 82.3996 296.77 91.5996C288.37 100.6 280.77 108.2 273.97 114.4C267.37 120.4 262.57 124.8 259.57 127.6C258.17 130.2 256.47 133.7 254.47 138.1C252.67 142.3 251.07 146.8 249.67 151.6C248.27 156.2 247.57 160.5 247.57 164.5C247.57 167.9 248.37 170.8 249.97 173.2C251.57 175.4 254.27 176.5 258.07 176.5C258.67 176.5 259.27 176.5 259.87 176.5C260.47 176.5 261.17 176.4 261.97 176.2C265.37 175.6 269.07 173.7 273.07 170.5C277.07 167.3 281.07 163.6 285.07 159.4C289.07 155.2 292.67 151.2 295.87 147.4C297.27 145.8 298.57 144.3 299.77 142.9C300.97 141.3 301.77 140.2 302.17 139.6C303.57 141 303.47 142.8 301.87 145C300.47 147 299.27 148.7 298.27 150.1C296.87 151.9 294.87 154.4 292.27 157.6C289.67 160.6 286.67 163.9 283.27 167.5C279.47 171.3 274.77 175.1 269.17 178.9C263.57 182.7 257.87 184.6 252.07 184.6ZM264.67 115.6C270.87 110.4 278.67 103 288.07 93.3996C297.67 83.5996 307.07 71.7996 316.27 57.9996C317.27 56.3996 318.87 53.6996 321.07 49.8996C323.47 46.0996 325.87 41.7996 328.27 36.9996C330.87 31.9996 333.07 27.1996 334.87 22.5996C336.67 17.7996 337.57 13.6996 337.57 10.2996C337.57 7.0996 336.67 5.49961 334.87 5.49961C332.67 5.49961 329.77 7.39961 326.17 11.1996C321.97 15.5996 317.17 22.0996 311.77 30.6996C306.57 39.0996 301.07 48.4996 295.27 58.8996C289.47 69.2996 283.87 79.4996 278.47 89.4996C273.27 99.4996 268.67 108.2 264.67 115.6Z" fill="#FF84F3"/>
<path d="M174.664 186.4C166.464 186.4 160.764 184.8 157.564 181.6C154.364 178.4 152.764 174.5 152.764 169.9C152.764 164.1 154.264 157.9 157.264 151.3C160.464 144.7 163.464 139.1 166.264 134.5C169.464 129.7 173.764 124.7 179.164 119.5C184.564 114.3 190.464 109.9 196.864 106.3C203.264 102.7 209.464 100.9 215.464 100.9C220.664 100.9 224.264 102.2 226.264 104.8C228.264 107.2 229.264 110.1 229.264 113.5C229.264 119.7 227.364 124.8 223.564 128.8C219.964 132.8 215.464 136.1 210.064 138.7C204.664 141.1 199.464 143.1 194.464 144.7C191.464 145.5 187.964 146.3 183.964 147.1C179.964 147.9 176.164 148.3 172.564 148.3C171.164 151.9 170.064 155.4 169.264 158.8C168.464 162.2 168.064 165.3 168.064 168.1C168.064 171.5 168.864 174.3 170.464 176.5C172.264 178.7 175.164 179.8 179.164 179.8C180.764 179.8 182.664 179.6 184.864 179.2C187.064 178.8 189.464 178.2 192.064 177.4C198.064 175.4 203.964 172.2 209.764 167.8C215.564 163.4 220.864 158.7 225.664 153.7C230.664 148.5 234.464 144.2 237.064 140.8C237.664 141.4 237.964 142.1 237.964 142.9C237.964 143.9 237.264 145.5 235.864 147.7C231.864 153.3 226.664 159.1 220.264 165.1C213.864 171.1 206.764 176.2 198.964 180.4C191.164 184.4 183.064 186.4 174.664 186.4ZM174.964 142.3C177.564 142.5 180.464 142.5 183.664 142.3C187.064 141.9 190.364 141.2 193.564 140.2C201.764 137.8 207.664 134 211.264 128.8C215.064 123.4 216.964 118.6 216.964 114.4C216.964 112 216.464 110 215.464 108.4C214.464 106.8 212.864 106 210.664 106C204.864 106 199.664 108.2 195.064 112.6C190.464 116.8 186.464 121.7 183.064 127.3C179.664 132.9 176.964 137.9 174.964 142.3Z" fill="#FF84F3"/>
<path d="M63.5605 192.7C52.9605 192.7 42.7605 191.1 32.9605 187.9C23.3605 184.9 15.5605 179.8 9.56055 172.6C3.56055 165.4 0.560547 155.7 0.560547 143.5C0.560547 130.5 3.06055 117.8 8.06055 105.4C13.0605 92.9998 19.7605 81.4998 28.1605 70.8998C36.5605 60.0998 45.9605 50.7998 56.3605 42.9998C65.5606 35.9998 76.1606 30.2998 88.1606 25.8998C100.361 21.4998 112.461 19.2998 124.461 19.2998C129.461 19.2998 134.161 19.6998 138.561 20.4998C142.961 21.0998 147.461 22.4998 152.061 24.6998C156.061 26.4998 159.261 28.7998 161.661 31.5998C164.061 34.1998 165.261 37.1998 165.261 40.5998C165.261 40.9998 165.261 41.4998 165.261 42.0998C165.261 42.6998 165.161 43.1998 164.961 43.5998C164.161 46.7998 162.261 50.4998 159.261 54.6998C156.461 58.6998 154.261 62.8998 152.661 67.2998C152.461 68.0998 151.361 68.7998 149.361 69.3998C147.361 69.7998 146.561 69.5998 146.961 68.7998C148.561 66.1998 149.761 62.9998 150.561 59.1998C151.561 55.3998 152.061 51.5998 152.061 47.7998C152.061 44.9998 151.761 42.3998 151.161 39.9998C150.761 37.3998 149.961 35.1998 148.761 33.3998C146.761 29.7998 143.661 27.2998 139.461 25.8998C135.261 24.4998 130.761 23.7998 125.961 23.7998C121.361 23.7998 116.761 24.2998 112.161 25.2998C107.561 26.2998 103.561 27.3998 100.161 28.5998C88.5605 32.7998 77.4606 39.3998 66.8605 48.3998C57.4606 56.5998 49.0605 66.0998 41.6605 76.8998C34.4605 87.6998 28.7605 98.7998 24.5605 110.2C20.3605 121.6 18.2605 132.5 18.2605 142.9C18.2605 153.5 20.5605 161.9 25.1605 168.1C29.7605 174.3 35.7605 178.7 43.1605 181.3C50.5605 183.9 58.5606 185.2 67.1606 185.2C74.7606 185.2 82.2605 184.4 89.6605 182.8C97.2605 181.2 104.161 179.2 110.361 176.8C120.961 172.8 130.461 167.9 138.861 162.1C147.461 156.3 155.461 148.8 162.861 139.6C163.861 138.6 164.561 138.1 164.961 138.1C165.561 138.1 165.861 138.5 165.861 139.3C165.861 140.9 165.061 142.8 163.461 145C156.661 154.2 148.961 161.9 140.361 168.1C131.761 174.3 122.561 179.4 112.761 183.4C106.161 186 98.4605 188.2 89.6605 190C81.0605 191.8 72.3605 192.7 63.5605 192.7Z" fill="#FF84F3"/>
</svg>
